<?xml version="1.0" encoding="UTF-8"?>
<svg xmlns="http://www.w3.org/2000/svg" viewBox="0 0 200 200" width="200" height="200">
  <g fill="none" stroke="currentColor" stroke-width="3" stroke-linecap="round" stroke-linejoin="round" transform="translate(100,100)">
    <path d="M0 -70 C40 -70 70 -40 70 0 C70 40 40 80 0 90 C-40 80 -70 40 -70 0 C-70 -40 -40 -70 0 -70Z"/>
    <path d="M0 -55 C30 -55 55 -30 55 0 C55 30 30 65 0 75 C-30 65 -55 30 -55 0 C-55 -30 -30 -55 0 -55Z"/>
    <path d="M0 -40 C20 -40 40 -20 40 0 C40 20 20 50 0 60 C-20 50 -40 20 -40 0 C-40 -20 -20 -40 0 -40Z"/>
    <path d="M0 -25 C10 -25 25 -10 25 0 C25 10 10 35 0 45 C-10 35 -25 10 -25 0 C-25 -10 -10 -25 0 -25Z"/>
    <path d="M0 -10 C5 -10 10 -5 10 0 C10 5 5 20 0 30 C-5 20 -10 5 -10 0 C-10 -5 -5 -10 0 -10Z"/>
  </g>
</svg>
