<?xml version="1.0" encoding="UTF-8"?>
<svg version="1.1" xmlns="http://www.w3.org/2000/svg" width="600" height="600">
<path d="M0 0 C1.51094321 0.32523858 3.02267086 0.64685403 4.53515625 0.96484375 C6.04427083 1.2890625 7.55338542 1.61328125 9.0625 1.9375 C10.18881836 2.17243164 10.18881836 2.17243164 11.33789062 2.41210938 C16.43046685 3.51689471 21.17112462 5.04981371 26 7 C26.89847656 7.350625 27.79695312 7.70125 28.72265625 8.0625 C33.50995944 9.98061814 38.27036043 11.94363497 43 14 C43 14.66 43 15.32 43 16 C43.53625 16.103125 44.0725 16.20625 44.625 16.3125 C50.13469198 17.90741084 55.06489228 21.13763752 60 24 C60 24.66 60 25.32 60 26 C61.09248047 26.38478516 61.09248047 26.38478516 62.20703125 26.77734375 C72.9610648 31.48505354 83.07217487 42.44629394 91 51 C91 51.66 91 52.32 91 53 C91.56976563 53.23460937 92.13953125 53.46921875 92.7265625 53.7109375 C114.06127996 65.80794224 126.61263053 104.8394914 132.86328125 127.0703125 C134.44679611 133.05915068 135.40397546 138.84107979 136 145 C136.33 145.66 136.66 146.32 137 147 C138.35257342 155.62027423 138.15436562 164.42255858 138.13037109 173.12426758 C138.12501761 175.42991738 138.13034347 177.73537176 138.13671875 180.04101562 C138.1455033 197.27098985 138.1455033 197.27098985 137 205 C136.67 205.33 136.34 205.66 136 206 C135.78619142 207.3880854 135.62975151 208.78514471 135.5 210.18359375 C135.4175 211.02857422 135.335 211.87355469 135.25 212.74414062 C135.1675 213.63294922 135.085 214.52175781 135 215.4375 C134.83694327 217.18653822 134.67043929 218.93525951 134.5 220.68359375 C134.4278125 221.46275146 134.355625 222.24190918 134.28125 223.04467773 C134 225 134 225 133 227 C132.63216833 229.66677964 132.29923963 232.32554585 132 235 C131.13513514 242.72972973 131.13513514 242.72972973 130 245 C131.32 244.67 132.64 244.34 134 244 C136.465702 249.08709322 137.52642739 253.46752557 137.80078125 259.13671875 C137.86811714 260.2777581 137.86811714 260.2777581 137.93681335 261.44184875 C138.02783839 263.04413344 138.11235875 264.64679968 138.19067383 266.24975586 C138.31136498 268.66478822 138.45983656 271.0769615 138.61132812 273.49023438 C139.21504387 284.08672185 139.23546604 294.0532919 135 304 C136.32 304 137.64 304 139 304 C139.05035186 308.28261912 139.08615671 312.56507039 139.10986328 316.84790039 C139.11977108 318.29747528 139.13330114 319.74703103 139.15087891 321.1965332 C139.31262668 334.90227797 139.18557154 348.28088907 132.8125 360.75 C129.61378634 367.3623379 126.90794622 373.91672568 124.5625 380.875 C121.44247322 389.7911852 116.98284607 396.74644199 111 404 C110.52949219 404.57508301 110.05898438 405.15016602 109.57421875 405.74267578 C106.44259998 409.5485211 103.23496794 413.28182144 100 417 C98.83233009 418.37414813 97.66544638 419.74896554 96.5 421.125 C92.79237288 425.38877119 92.79237288 425.38877119 91 427 C90.34 427 89.68 427 89 427 C88.77054687 427.73347656 88.54109375 428.46695312 88.3046875 429.22265625 C83.83477399 438.73795118 70.97485986 444.45557112 61.55859375 447.890625 C60.08413252 448.37270971 58.60496182 448.84066672 57.12109375 449.29296875 C54.93622394 450.02125869 52.94831466 450.93752142 50.875 451.9375 C46.2065867 454.09910686 41.34752521 455.26286316 36.37744141 456.49536133 C33.03926076 457.35373858 30.1433226 458.23805048 27.25 460.125 C13.52076323 468.04571352 -6.29183576 464.15759255 -21 461 C-22.07314453 460.64228516 -22.07314453 460.64228516 -23.16796875 460.27734375 C-25.82392005 459.8752701 -27.55355831 460.96411928 -30 462 C-41.87545276 463.80343552 -54.52678376 463.97933543 -66.07421875 460.34765625 C-68.49071436 459.91141262 -69.628484 460.4221975 -71.875 461.375 C-84.71983509 465.96544926 -99.60710285 464.59471127 -112.4375 460.6875 C-113.09991699 460.48688965 -113.76233398 460.2862793 -114.44482422 460.07958984 C-120.09458693 458.23070679 -124.66003386 456.00994921 -128 451 C-129.7281016 449.98922359 -131.459415 448.98272034 -133.21875 448.02734375 C-135 447 -135 447 -137.3125 445.125 C-140.58531676 442.5371914 -144.07956221 440.53648183 -147.6953125 438.46484375 C-150 437 -150 437 -151.48046875 435.5078125 C-154.17371844 432.83533337 -157.63031449 431.25076739 -160.91796875 429.40234375 C-161.60503906 428.93957031 -162.29210937 428.47679687 -163 428 C-163 427.34 -163 426.68 -163 426 C-164.32 425.34 -165.64 424.68 -167 424 C-167 423.34 -167 422.68 -167 422 C-167.57234375 421.74734375 -168.1446875 421.4946875 -168.734375 421.234375 C-176.53186529 416.98608719 -181.10710217 409.58888302 -185.19042969 402.01464844 C-186.89082295 398.87715958 -188.55138681 396.10041401 -191 393.5 C-195.70326768 388.43691949 -198.76352867 382.05533345 -202 376 C-202.40347656 375.24976563 -202.80695313 374.49953125 -203.22265625 373.7265625 C-206.23118442 367.56334284 -207.81676372 360.88237512 -209.5703125 354.28125 C-210.58594963 350.46933217 -211.67613287 346.6862567 -212.8046875 342.90625 C-216.46254587 330.56038529 -219.32497921 318.86194849 -220 306 C-220.05881348 305.05930664 -220.11762695 304.11861328 -220.17822266 303.14941406 C-221.45053884 281.76510246 -220.83979973 260.38166685 -220.41137695 238.97949219 C-220.11032815 223.90192926 -219.88483973 208.83073316 -219.875 193.75 C-219.87259308 192.91888702 -219.87018616 192.08777405 -219.8677063 191.23147583 C-219.86186759 188.91989911 -219.8631041 186.608453 -219.8671875 184.296875 C-219.86831543 183.02166992 -219.86944336 181.74646484 -219.87060547 180.43261719 C-219.92149413 177.07835538 -219.92149413 177.07835538 -220.4934082 174.12451172 C-221.16595058 169.97646479 -221.20167997 165.90703603 -221.23828125 161.7109375 C-221.246353 160.81243073 -221.25442474 159.91392395 -221.26274109 158.9881897 C-221.27654055 157.08361714 -221.28728111 155.17902029 -221.29516602 153.27441406 C-221.30657261 151.36646034 -221.32683956 149.45853556 -221.35668945 147.55078125 C-221.55782068 134.66040424 -220.493728 122.77456577 -217.52081299 110.22035217 C-216.82135907 107.23841038 -216.18967142 104.24338978 -215.55830383 101.24641418 C-212.33748334 86.40673074 -206.61869713 72.68347064 -198.68359375 59.76171875 C-197.50168026 57.82294187 -196.35054033 55.8652298 -195.22265625 53.89453125 C-190.33764007 45.53306183 -184.78204478 38.89355823 -178 32 C-177.17886719 31.15050781 -176.35773438 30.30101562 -175.51171875 29.42578125 C-165.25191453 19.51701232 -151.95726399 10.26500283 -138 7 C-136.88625 6.649375 -135.7725 6.29875 -134.625 5.9375 C-130.4239948 4.85103314 -126.22207742 4.18118397 -121.9375 3.51171875 C-119.41530579 3.07234715 -117.02302499 2.5068527 -114.5625 1.8125 C-110.19173776 0.81565949 -107.8524797 1.331049 -103.75 2.8125 C-101.50918742 4.3330514 -101.52253877 5.42388388 -101 8 C-100.40388916 7.80889648 -99.80777832 7.61779297 -99.19360352 7.42089844 C-67.40103824 -2.63892897 -32.94369355 -7.75607427 0 0 Z " fill="#FCFCFC" transform="translate(336,72)"/>
<path d="M0 0 C1.56536499 0.00737183 1.56536499 0.00737183 3.16235352 0.01489258 C12.48802293 0.15410298 21.3623841 1.18920964 30.4375 3.3125 C31.13359375 3.47347168 31.8296875 3.63444336 32.546875 3.80029297 C55.17438967 9.25289546 74.20932057 20.94805502 91.4375 36.3125 C92.53191406 37.27929688 92.53191406 37.27929688 93.6484375 38.265625 C113.77304605 57.15811466 128.51292871 87.42126701 129.58276367 115.06616211 C129.59595694 116.40734579 129.6032714 117.74859698 129.60546875 119.08984375 C129.60879715 119.81885391 129.61212555 120.54786407 129.61555481 121.29896545 C129.62059147 122.83773169 129.62296415 124.37650873 129.62280273 125.9152832 C129.6249648 128.21259798 129.64308727 130.50941209 129.66210938 132.80664062 C129.71188215 145.74625602 128.35022747 158.17354585 125.8125 170.875 C122.99765298 186.55771911 121.52263555 205.97172366 130.0625 220.0625 C137.61628391 230.23810696 147.23780809 235.10526317 158.4375 240.3125 C160.73586554 241.3831036 163.02558711 242.46720357 165.3125 243.5625 C166.25867188 244.00078125 167.20484375 244.4390625 168.1796875 244.890625 C170.71741981 246.48878168 171.45754836 247.51419364 172.4375 250.3125 C172.95305338 254.2650759 172.59664688 256.0169415 170.6875 259.5625 C168.51416061 262.2188037 167.52170926 263.09489784 164.4375 264.3125 C147.29932941 264.3125 129.95088757 252.49697269 117.9765625 241.10546875 C103.04950796 224.68570876 100.67393787 206.42374496 101.24072266 184.94921875 C101.78049779 174.97342421 103.69209817 165.13432031 105.4375 155.3125 C110.75552805 124.72374121 106.8700028 94.4612542 89.4375 68.3125 C81.35815699 57.24731283 71.98467942 47.7056228 60.4375 40.3125 C59.35662109 39.56226563 59.35662109 39.56226563 58.25390625 38.796875 C35.43303408 23.76753111 4.83158992 20.10973571 -21.5625 25.3125 C-38.11799328 29.29173493 -53.84579973 36.96223892 -66.5625 48.3125 C-67.37847656 48.98667969 -68.19445312 49.66085938 -69.03515625 50.35546875 C-92.63013543 70.37655618 -101.89252259 98.80247374 -105.09521484 128.60668945 C-107.06535443 146.15258943 -113.61903972 162.17902103 -125.5625 175.3125 C-126.3359375 176.16714844 -127.109375 177.02179688 -127.90625 177.90234375 C-136.02394649 186.44390731 -146.76611375 194.93267471 -158.75 196.8125 C-162.45652355 196.15356248 -164.63522374 194.64101521 -167.5625 192.3125 C-169.65950424 189.16699364 -169.89174468 187.24954565 -170.12109375 183.54296875 C-169.24745227 180.0545122 -167.14925425 177.6962084 -164.5625 175.3125 C-161.328125 173.4765625 -161.328125 173.4765625 -157.8125 171.9375 C-144.55962107 165.7190542 -136.30275031 155.63392986 -130.75 142.125 C-128.22827258 134.54306206 -127.55159984 126.83707484 -126.71875 118.91967773 C-125.01406688 103.26960958 -121.01494936 88.6604915 -114.5625 74.3125 C-114.11261719 73.29027344 -113.66273438 72.26804687 -113.19921875 71.21484375 C-107.40227918 58.82082366 -98.97749307 48.15937349 -89.5625 38.3125 C-88.95277344 37.63960937 -88.34304687 36.96671875 -87.71484375 36.2734375 C-70.77974997 18.22371971 -46.49309749 7.19372649 -22.5625 2.3125 C-21.73210205 2.13517334 -20.9017041 1.95784668 -20.04614258 1.77514648 C-13.31927337 0.42713301 -6.85363685 -0.03878463 0 0 Z " fill="#313131" transform="translate(298.5625,114.6875)"/>
<path d="M0 0 C16.65216464 14.06122816 28.45190373 33.31422261 30.8125 55.25 C32.03494738 72.7433992 29.49534665 89.63229335 26.5 106.8125 C26.27102791 108.13996541 26.04210556 109.4674394 25.81323242 110.79492188 C25.37100287 113.35708466 24.91038532 115.91354599 24.4387207 118.47070312 C22.46065351 129.70473189 21.67213849 140.93533916 24.3125 152.125 C24.48555664 152.87402588 24.65861328 153.62305176 24.83691406 154.39477539 C28.03099414 167.06311555 34.67446473 178.13154306 42.8125 188.25 C43.32941406 188.930625 43.84632813 189.61125 44.37890625 190.3125 C57.15895969 206.19948372 78.26100605 217.49721214 97.375 223.3125 C100.86502142 224.43742104 102.72006473 225.17227034 105.5625 227.5625 C107.19797292 231.07876678 107.29255368 233.40957057 106.8125 237.25 C105.02132468 241.39798495 102.97757424 243.4914131 98.8125 245.25 C92.06891305 245.79898288 87.04723889 244.29245481 80.8125 241.8125 C79.4359021 241.27387329 79.4359021 241.27387329 78.03149414 240.72436523 C47.45773867 228.41779752 20.31566519 205.06767738 7.0546875 174.5 C4.89337988 168.84525806 3.22719694 163.13323487 1.8125 157.25 C1.585625 156.31027344 1.35875 155.37054688 1.125 154.40234375 C-2.18200246 138.07401912 0.03548548 122.62413782 3.5 106.5546875 C7.8190664 86.3431943 12.32433639 61.83278699 3.8125 42.25 C3.43867188 41.363125 3.06484375 40.47625 2.6796875 39.5625 C-4.48220563 24.00554009 -16.76787318 14.81531867 -32.1875 8.25 C-49.06652373 2.96302537 -66.28964373 4.55188756 -82.1875 12.25 C-86.04393567 14.69922619 -89.63279343 17.38458749 -93.1875 20.25 C-94.0228125 20.86746094 -94.858125 21.48492187 -95.71875 22.12109375 C-109.37696596 33.8991439 -112.73207793 50.75224248 -114.85351562 67.69921875 C-119.55615738 103.61530139 -135.29613404 135.79598273 -164.34130859 158.42724609 C-178.1496594 168.78807425 -198.17159604 181.73381835 -216.16015625 180.74609375 C-219.57850277 179.90961975 -221.18462302 178.0281842 -223.1875 175.25 C-224.40010877 171.61217368 -224.58294552 169.07264001 -224.1875 165.25 C-220.74199787 160.51243457 -216.55490212 159.01593619 -211.1875 157.25 C-197.24096217 152.3488422 -184.19871992 146.27326381 -173.1875 136.25 C-172.28386719 135.42757812 -171.38023437 134.60515625 -170.44921875 133.7578125 C-149.78127156 114.03321559 -140.31699459 88.72404423 -137.21826172 60.83984375 C-134.52422799 36.89976852 -124.46631157 16.42938706 -106.16796875 0.53125 C-74.69033299 -23.56172416 -31.68031365 -24.23196405 0 0 Z " fill="#313131" transform="translate(353.1875,177.75)"/>
<path d="M0 0 C8.83781153 7.29039687 14.70258534 16.29794574 16.1640625 27.78515625 C17.17484707 40.75965331 14.70582058 53.1240238 12.1640625 65.78515625 C11.93976563 66.94217041 11.93976563 66.94217041 11.7109375 68.12255859 C8.06982534 86.61890265 1.18816422 104.27256675 -7.8359375 120.78515625 C-8.32578125 121.69136719 -8.815625 122.59757813 -9.3203125 123.53125 C-16.39040774 135.9436363 -25.9973543 146.5331872 -35.8359375 156.78515625 C-36.6196875 157.61015625 -37.4034375 158.43515625 -38.2109375 159.28515625 C-42.85273552 164.05957707 -47.77311226 168.32371021 -52.97265625 172.48046875 C-55.85240079 174.79840774 -58.65322671 177.19324181 -61.4609375 179.59765625 C-87.46132991 201.23131609 -128.9669092 232.64593303 -163.5234375 236.16015625 C-167.15686016 235.74882538 -168.99246002 235.05993824 -171.8359375 232.78515625 C-173.55601348 229.94460824 -174.17592454 227.65736068 -174.2734375 224.34765625 C-174.31339844 223.60644531 -174.35335937 222.86523438 -174.39453125 222.1015625 C-173.52370527 218.49037505 -171.69676966 217.10071231 -168.8359375 214.78515625 C-166.14475596 213.43688822 -163.3650088 212.45624209 -160.5234375 211.47265625 C-152.3383103 208.45909022 -144.64268146 204.91736576 -136.92382812 200.86962891 C-134.74463129 199.73773083 -132.5499893 198.64090787 -130.3515625 197.546875 C-113.42811866 189.02137126 -97.75304257 178.44950369 -82.8359375 166.78515625 C-81.71111745 165.91643362 -80.58610773 165.04795653 -79.4609375 164.1796875 C-42.24967473 135.33736703 -18.5902034 103.35239683 -8.8359375 56.78515625 C-8.495625 55.25181641 -8.495625 55.25181641 -8.1484375 53.6875 C-6.94515655 47.61260244 -6.58290781 41.58770371 -6.4609375 35.41015625 C-6.43483398 34.64840088 -6.40873047 33.88664551 -6.38183594 33.10180664 C-6.36566106 27.86056747 -7.40843467 24.95695258 -10.8359375 20.78515625 C-16.05931468 16.18360969 -19.14599804 15.40676512 -26.01171875 15.5234375 C-30.18266285 15.90995652 -32.84148039 16.82197285 -35.8359375 19.78515625 C-40.95885376 26.16489463 -41.43916805 33.37885938 -42.11206055 41.20825195 C-45.03384683 74.76177324 -59.00792508 106.33076478 -80.8359375 131.78515625 C-81.79817978 132.94292723 -82.75904796 134.10184123 -83.71875 135.26171875 C-89.63064744 142.35904747 -95.6420257 148.94325593 -102.8359375 154.78515625 C-103.38137207 155.23036621 -103.92680664 155.67557617 -104.48876953 156.13427734 C-125.2927912 172.92856948 -153.89199372 190.43122108 -181.2109375 192.28515625 C-185.98798207 191.62625355 -187.50362875 190.19874083 -190.8359375 186.78515625 C-191.97217869 184.51267387 -192.10040593 183.00212861 -192.2109375 180.47265625 C-192.25992188 179.71339844 -192.30890625 178.95414063 -192.359375 178.171875 C-191.5484859 174.47446275 -189.77686798 173.10248629 -186.8359375 170.78515625 C-184.07509901 169.82948139 -181.5392077 169.10419386 -178.7109375 168.47265625 C-138.53360252 158.36336069 -104.57186357 132.51479852 -83.36035156 97.13696289 C-77.93210263 87.80125099 -74.19299555 78.02521028 -70.8359375 67.78515625 C-70.43503906 66.56957031 -70.03414063 65.35398437 -69.62109375 64.1015625 C-66.39010697 53.55513395 -64.53422777 42.6184628 -63.3828125 31.65625 C-61.94753521 18.4862519 -57.66084916 9.83031302 -47.8359375 0.78515625 C-33.52843658 -9.93439552 -14.69021506 -10.56345854 0 0 Z " fill="#313131" transform="translate(323.8359375,212.21484375)"/>
<path d="M0 0 C6.24836339 5.4703498 12.03291562 11.17742498 17.34228516 17.57226562 C18.08736328 18.3946875 18.83244141 19.21710938 19.60009766 20.06445312 C27.67210749 29.19923541 35.16662643 40.09281577 39.46728516 51.57617188 C39.75603516 52.23488281 40.04478516 52.89359375 40.34228516 53.57226562 C41.33228516 53.90226562 42.32228516 54.23226562 43.34228516 54.57226562 C44.36962891 56.37890625 44.36962891 56.37890625 45.27978516 58.72851562 C45.61751953 59.58703125 45.95525391 60.44554687 46.30322266 61.33007812 C46.81755859 62.68746094 46.81755859 62.68746094 47.34228516 64.07226562 C47.68517578 64.94625 48.02806641 65.82023437 48.38134766 66.72070312 C49.3951062 69.32861633 50.37341482 71.94738464 51.34228516 74.57226562 C51.6263623 75.3114624 51.91043945 76.05065918 52.203125 76.81225586 C54.4498084 82.98053697 55.25312972 89.13027034 55.96728516 95.63476562 C56.08845703 96.67181641 56.20962891 97.70886719 56.33447266 98.77734375 C56.56101703 100.71897679 56.78372086 102.66106545 57.00097656 104.60375977 C57.26122581 106.86725807 57.55665766 109.1267401 57.86791992 111.38378906 C58.40734953 115.69391807 58.53757228 119.96238836 58.58056641 124.30273438 C58.5902243 125.12329315 58.5998822 125.94385193 58.60983276 126.78927612 C58.6346219 129.44615243 58.64723412 132.10278609 58.65478516 134.75976562 C58.6577359 135.66910858 58.66068665 136.57845154 58.66372681 137.51535034 C58.67500783 152.84962483 57.54447241 167.53102717 54.859375 182.65087891 C54.38379334 185.33775809 53.95742794 188.02680545 53.54931641 190.72460938 C51.75335831 201.88974182 51.75335831 201.88974182 47.34228516 206.57226562 C43.85074835 208.31803403 40.15200971 208.13155161 36.34228516 207.57226562 C33.34228516 205.63476562 33.34228516 205.63476562 31.34228516 202.57226562 C29.43982253 193.70371509 31.32911089 185.02208772 32.71728516 176.19726562 C39.83411342 129.81183456 38.08819211 82.8565803 9.34228516 43.57226562 C-15.64044591 10.51843729 -49.4438011 -10.81432162 -90.47021484 -17.74023438 C-130.97689276 -22.31427835 -172.40426988 -14.17377182 -204.93676758 11.30200195 C-236.93367012 37.19071923 -257.41108705 72.78609076 -261.86938477 113.94091797 C-262.09851447 116.23093945 -262.30790163 118.52304613 -262.49487305 120.81689453 C-263.05035257 126.88115043 -263.6114182 130.91668106 -267.65771484 135.57226562 C-271.06569657 138.15763107 -274.49842995 138.01008509 -278.65771484 137.57226562 C-281.41100505 135.77664157 -283.18398945 134.5197164 -284.65771484 131.57226562 C-288.37890842 91.01382203 -270.07694419 49.97686512 -244.88037109 19.16992188 C-219.5176946 -10.47187052 -188.59201792 -29.4082747 -150.65771484 -38.42773438 C-149.97032227 -38.5943457 -149.28292969 -38.76095703 -148.57470703 -38.93261719 C-96.36112058 -50.94746343 -39.96860259 -34.4236212 0 0 Z " fill="#323232" transform="translate(413.65771484375,112.427734375)"/>
<path d="M0 0 C4.99404293 3.99155549 9.20793769 8.63464308 13.37890625 13.45703125 C22.69404829 24.13614971 32.88416506 34.06027757 44.12109375 42.6953125 C45.65830078 43.92314453 45.65830078 43.92314453 47.2265625 45.17578125 C55.93864107 52.09558582 65.11273526 57.96593126 74.87109375 63.30859375 C75.68811768 63.75654297 76.5051416 64.20449219 77.34692383 64.66601562 C78.96219198 65.54645932 80.58172125 66.41913932 82.20581055 67.28320312 C82.94484619 67.68345703 83.68388184 68.08371094 84.4453125 68.49609375 C85.10619873 68.84841064 85.76708496 69.20072754 86.44799805 69.5637207 C88.12109375 70.6953125 88.12109375 70.6953125 90.12109375 73.6953125 C90.860744 78.28802453 90.73070569 81.71993339 88.24609375 85.6953125 C84.61315581 89.11454821 81.76382988 89.09466351 76.92480469 89.0390625 C71.9734369 88.43199825 68.03539972 86.12707001 63.74609375 83.6953125 C62.82562256 83.19128906 61.90515137 82.68726563 60.95678711 82.16796875 C36.36951807 68.53799893 16.74462504 49.61507797 -2.75024414 29.65258789 C-4.62881991 27.73165791 -6.51675448 25.82033779 -8.40625 23.91015625 C-8.96884018 23.32894516 -9.53143036 22.74773407 -10.11106873 22.14891052 C-13.92404789 18.31145832 -17.70547545 15.12120665 -23.265625 14.375 C-34.52434367 15.33074861 -43.16865145 23.51989074 -51.75390625 30.2578125 C-71.58164331 45.55207199 -92.62079289 58.87859811 -115.12890625 69.8828125 C-116.25353271 70.44512573 -116.25353271 70.44512573 -117.40087891 71.01879883 C-122.3214234 73.34688721 -127.35879005 75.08422366 -132.87890625 74.6953125 C-136.00543924 73.04149344 -138.27742879 70.89826741 -139.87890625 67.6953125 C-140.15234375 65.70703125 -140.15234375 65.70703125 -140.25390625 63.3828125 C-140.30289063 62.62355469 -140.351875 61.86429687 -140.40234375 61.08203125 C-139.60433863 57.44336612 -137.70772931 56.05266505 -134.87890625 53.6953125 C-132.46628818 52.32779166 -130.1318723 51.11055526 -127.62890625 49.9453125 C-126.18942516 49.24618801 -124.75064461 48.54561962 -123.3125 47.84375 C-122.57628418 47.48764648 -121.84006836 47.13154297 -121.08154297 46.76464844 C-106.87572357 39.86800812 -93.85677771 31.68512274 -80.87890625 22.6953125 C-80.2122998 22.23479492 -79.54569336 21.77427734 -78.85888672 21.29980469 C-73.34901375 17.47542586 -67.94177046 13.54740441 -62.66796875 9.40234375 C-43.18091856 -5.89238531 -22.79754734 -16.17366103 0 0 Z " fill="#313131" transform="translate(317.87890625,410.3046875)"/>
<path d="M0 0 C8.84257757 4.72899753 15.20756857 11.50373381 21.89331055 18.81445312 C31.93057072 29.69702722 44.25933834 38.65254534 56.875 46.375 C61.39994902 49.19242109 61.39994902 49.19242109 63.1875 51.4375 C63.55078125 53.55859375 63.55078125 53.55859375 63.5 55.875 C63.49613281 56.63683594 63.49226562 57.39867187 63.48828125 58.18359375 C63.15345604 60.69260864 62.53699428 62.30118193 61.1875 64.4375 C57.02203655 67.08824947 54.07581316 67.87921504 49.1875 67.4375 C46.66256346 66.38687448 44.42890951 65.32734761 42.0625 64 C41.40870361 63.64091553 40.75490723 63.28183105 40.08129883 62.91186523 C23.42825375 53.5309807 8.8522054 39.64972662 -3.33984375 25.03125 C-5.68222005 22.49626451 -7.47238011 21.49302978 -10.875 20.9375 C-19.64547952 22.05121169 -27.17032257 29.02481827 -34.0625 34.25 C-41.78487921 40.01259615 -49.56136106 45.45530871 -57.8125 50.4375 C-58.93398437 51.13101563 -60.05546875 51.82453125 -61.2109375 52.5390625 C-67.6424462 56.30201981 -73.26054179 59.23759432 -80.8125 57.4375 C-84.36930172 55.33245409 -85.50718936 54.35343192 -86.8125 50.4375 C-87.31033602 46.03994846 -87.28084144 44.09747473 -84.68359375 40.4375 C-82.00016432 37.39707016 -79.1045947 35.63489382 -75.5 33.75 C-70.15376248 30.8447756 -65.06441186 27.71539307 -60.0625 24.25 C-59.4037085 23.79383301 -58.74491699 23.33766602 -58.06616211 22.86767578 C-54.4122756 20.31368144 -50.80383058 17.70433319 -47.21875 15.0546875 C-17.17176221 -7.11184488 -17.17176221 -7.11184488 0 0 Z " fill="#313131" transform="translate(301.8125,456.5625)"/>
<path d="M0 0 C0.85207031 -0.02578125 1.70414062 -0.0515625 2.58203125 -0.078125 C11.86575128 1.09103914 19.81648405 12.38201473 25.3125 19.375 C35.60682399 32.22909329 47.78680804 43.69361514 61.1875 53.25 C62.08782959 53.89291992 62.08782959 53.89291992 63.00634766 54.54882812 C75.39659727 63.29335349 88.27774252 70.54231671 102.55419922 75.72924805 C107.04799388 77.44343656 109.67985605 79.10665937 112.1875 83.25 C113.12651828 87.15395 112.5212488 90.48237777 110.9375 94.125 C108.70942527 96.83051932 106.67013507 97.99176875 103.20825195 98.59472656 C96.52693308 98.7411067 91.39560633 96.74757645 85.375 94 C83.87864014 93.33097656 83.87864014 93.33097656 82.35205078 92.6484375 C52.4951011 78.95198157 28.11335464 57.71569042 7.078125 32.74609375 C2.76237127 27.75321314 -1.33750418 24.03051658 -6.92578125 20.5390625 C-9.52648379 18.76218499 -10.73047124 17.20754528 -11.8125 14.25 C-12.3023067 10.88257892 -12.5615388 8.49007534 -10.7578125 5.50390625 C-7.327649 1.27201815 -5.30213093 0.09539066 0 0 Z " fill="#313131" transform="translate(326.8125,365.75)"/>
<path d="M0 0 C1.16662926 -0.01216805 1.16662926 -0.01216805 2.35682678 -0.02458191 C3.99658331 -0.03302086 5.63648058 -0.02622855 7.27612305 -0.00512695 C9.77603819 0.01944164 12.26819469 -0.02521429 14.76757812 -0.07617188 C26.27133605 -0.14088341 26.27133605 -0.14088341 30.29101562 2.34008789 C32.78538647 5.14477563 33.72115984 7.21219883 34.47265625 10.89453125 C33.40402907 15.91707902 31.08160721 19.00939728 26.84765625 21.83203125 C21.00323775 23.37104093 14.97422325 23.09479451 8.97265625 23.14453125 C7.81378906 23.17353516 6.65492188 23.20253906 5.4609375 23.23242188 C-1.31802147 23.28277986 -5.67813 22.96278492 -11.15234375 18.83203125 C-13.53206657 15.93497738 -13.47992589 12.70862552 -13.7109375 9.02734375 C-11.8342908 1.65199097 -6.96002496 -0.08440483 0 0 Z " fill="#313232" transform="translate(280.15234375,510.16796875)"/>
<path d="M0 0 C0.72200089 -0.00095673 1.44400177 -0.00191345 2.18788147 -0.00289917 C3.70297331 -0.0035745 5.21806815 -0.00176582 6.7331543 0.00244141 C9.02594644 0.00779101 11.31854202 0.00247829 13.61132812 -0.00390625 C24.1361987 -0.01048814 33.84927528 0.71999246 44.09765625 3.1328125 C45.60859946 3.45805108 47.12032711 3.77966653 48.6328125 4.09765625 C50.14192708 4.421875 51.65104167 4.74609375 53.16015625 5.0703125 C53.91103516 5.22693359 54.66191406 5.38355469 55.43554688 5.54492188 C60.5281231 6.64970721 65.26878087 8.18262621 70.09765625 10.1328125 C70.99613281 10.4834375 71.89460937 10.8340625 72.8203125 11.1953125 C77.60761569 13.11343064 82.36801668 15.07644747 87.09765625 17.1328125 C87.09765625 17.7928125 87.09765625 18.4528125 87.09765625 19.1328125 C87.63390625 19.2359375 88.17015625 19.3390625 88.72265625 19.4453125 C94.23234823 21.04022334 99.16254853 24.27045002 104.09765625 27.1328125 C104.09765625 27.7928125 104.09765625 28.4528125 104.09765625 29.1328125 C104.82597656 29.38933594 105.55429687 29.64585938 106.3046875 29.91015625 C117.05872105 34.61786604 127.16983112 45.57910644 135.09765625 54.1328125 C135.09765625 54.7928125 135.09765625 55.4528125 135.09765625 56.1328125 C135.66742188 56.36742187 136.2371875 56.60203125 136.82421875 56.84375 C145.92599327 62.00454998 151.68514462 74.0444483 156.78515625 82.6953125 C157.42179199 83.76668457 158.05842773 84.83805664 158.71435547 85.94189453 C159.29846191 86.95493652 159.88256836 87.96797852 160.484375 89.01171875 C161.27654419 90.38179077 161.27654419 90.38179077 162.0847168 91.77954102 C163.09765625 94.1328125 163.09765625 94.1328125 162.09765625 97.1328125 C161.80632812 96.61485107 161.515 96.09688965 161.21484375 95.56323242 C153.83243275 82.48876199 146.4236536 70.48619938 136.1875 59.41015625 C134.40292645 57.46547143 132.71020438 55.48351469 131.03515625 53.4453125 C127.72853439 49.58310648 124.02141047 46.35567283 120.09765625 43.1328125 C119.5970166 42.7198291 119.09637695 42.3068457 118.58056641 41.88134766 C80.12190503 10.33864786 33.43015328 -1.18544941 -15.63671875 3.6015625 C-26.56669863 4.98965446 -37.15173345 8.24547916 -47.66210938 11.45361328 C-50.73190786 12.38432159 -53.8153727 13.26095176 -56.90234375 14.1328125 C-56.57234375 13.1428125 -56.24234375 12.1528125 -55.90234375 11.1328125 C-53.14125663 9.98235953 -50.50617202 9.05301121 -47.65234375 8.1953125 C-46.81276123 7.93661377 -45.97317871 7.67791504 -45.1081543 7.41137695 C-30.62469668 3.10894986 -15.14656825 -0.04547738 0 0 Z " fill="#EBEBEB" transform="translate(291.90234375,68.8671875)"/>
<path d="M0 0 C2.70432672 2.70432672 2.56783347 4.74219713 3.0625 8.5 C3.54504561 12.89758116 3.54504561 12.89758116 5 17 C6.35257342 25.62027423 6.15436562 34.42255858 6.13037109 43.12426758 C6.12501761 45.42991738 6.13034347 47.73537176 6.13671875 50.04101562 C6.1455033 67.27098985 6.1455033 67.27098985 5 75 C4.505 75.495 4.505 75.495 4 76 C3.78619142 77.3880854 3.62975151 78.78514471 3.5 80.18359375 C3.37625 81.45106445 3.37625 81.45106445 3.25 82.74414062 C3.1675 83.63294922 3.085 84.52175781 3 85.4375 C2.83694327 87.18653822 2.67043929 88.93525951 2.5 90.68359375 C2.39171875 91.85233032 2.39171875 91.85233032 2.28125 93.04467773 C2 95 2 95 1 97 C0.60772162 99.70872518 0.25430502 102.40751693 -0.0625 105.125 C-0.19881836 106.25615234 -0.19881836 106.25615234 -0.33789062 107.41015625 C-0.56190852 109.27304188 -0.78138573 111.13647252 -1 113 C-1.99 112.67 -2.98 112.34 -4 112 C-3.82984375 111.18144531 -3.6596875 110.36289062 -3.484375 109.51953125 C-2.5935909 105.02296683 -1.7905399 100.51509168 -1 96 C-0.82355957 95.02869141 -0.64711914 94.05738281 -0.46533203 93.05664062 C4.38063282 65.69420058 5.8387314 36.0675331 0.65625 8.640625 C0.11525421 5.63938643 -0.14320545 3.03118213 0 0 Z " fill="#EAEAEA" transform="translate(468,202)"/>
<path d="M0 0 C1.40885258 0.00502467 2.81770689 0.00958587 4.2265625 0.01367188 C7.65108638 0.0253997 11.07552047 0.04181309 14.5 0.0625 C14.5 0.3925 14.5 0.7225 14.5 1.0625 C13.19518677 1.12981323 13.19518677 1.12981323 11.86401367 1.19848633 C-11.34047418 2.42929442 -32.93758564 4.56979119 -55.25976562 11.38330078 C-58.32956411 12.31400909 -61.41302895 13.19063926 -64.5 14.0625 C-64.17 13.0725 -63.84 12.0825 -63.5 11.0625 C-60.73891288 9.91204703 -58.10382827 8.98269871 -55.25 8.125 C-54.41041748 7.86630127 -53.57083496 7.60760254 -52.70581055 7.34106445 C-43.12788459 4.49586483 -33.35871719 2.6339791 -23.5 1.0625 C-22.29730469 0.86398438 -21.09460938 0.66546875 -19.85546875 0.4609375 C-13.28177155 -0.31821011 -6.60982622 -0.04113678 0 0 Z " fill="#F2F2F2" transform="translate(299.5,68.9375)"/>
<path d="M0 0 C2.70432672 2.70432672 2.56783347 4.74219713 3.0625 8.5 C3.54504561 12.89758116 3.54504561 12.89758116 5 17 C6.60224496 28.39374193 6.0019465 39.58496671 5 51 C4.67 51 4.34 51 4 51 C3.98541748 50.35264893 3.97083496 49.70529785 3.95581055 49.03833008 C3.62027157 35.59187237 2.77553826 22.48509575 0.62109375 9.203125 C0.12454362 6.09985695 -0.1473668 3.15236804 0 0 Z " fill="#D4D4D4" transform="translate(468,202)"/>
<path d="M0 0 C2.70432672 2.70432672 2.56783347 4.74219713 3.0625 8.5 C3.54504561 12.89758116 3.54504561 12.89758116 5 17 C5.04022391 19.3329866 5.04320247 21.66706666 5 24 C2.07878762 21.07878762 2.01886416 17.6196704 1.375 13.6875 C1.2409375 12.92759766 1.106875 12.16769531 0.96875 11.38476562 C0.31557094 7.54900492 -0.17154539 3.90655629 0 0 Z " fill="#EAEAEB" transform="translate(468,202)"/>
<path d="M0 0 C0.66 0.33 1.32 0.66 2 1 C-2.29 5.29 -6.58 9.58 -11 14 C-11 9.40845608 -8.09282279 7.18698368 -5 4 C-3.3719908 2.61973133 -1.71956118 1.26438322 0 0 Z " fill="#E6E6E5" transform="translate(262,195)"/>
<path d="M0 0 C4.82360189 -0.19294408 8.49646738 0.24252386 13 2 C13 2.33 13 2.66 13 3 C8.17639811 3.19294408 4.50353262 2.75747614 0 1 C0 0.67 0 0.34 0 0 Z " fill="#EEEEEE" transform="translate(335,73)"/>
<path d="M0 0 C-0.33 0.66 -0.66 1.32 -1 2 C-4.3 1.67 -7.6 1.34 -11 1 C-11 0.67 -11 0.34 -11 0 C-7.01803543 -1.05404945 -4.01804691 -0.84098656 0 0 Z " fill="#DEDEDE" transform="translate(336,72)"/>
</svg>
